# xmcd CD database file
#
# Track frame offsets:
#	150
#	16355
#	33660
#	42980
#	56210
#	75030
#	88060
#	99940
#	114760
#	123505
#	136010
#	150480
#	177910
#	194510
#	207580
#	220360
#
# Disc length: 3169 seconds
#
# Revision: 5
# Processed by: cddbd v1.5.2PL0 Copyright (c) Steve Scherf et al.
# Submitted via: CDex 1.51
#
DISCID=d30c5f10
DTITLE=Ray Charles - What'D I say
DYEAR=2013
DGENRE=Jazz
TTITLE0=Georgia On My Mind
TTITLE1=Ruby
TTITLE2=Busted
TTITLE3=Eleanor Rigby
TTITLE4=I Can't Stop Loving You
TTITLE5=Take These Chains From My Heart
TTITLE6=Together Again
TTITLE7=Here We Go Again
TTITLE8=Hit The Road Jack
TTITLE9=Unchain My Heart
TTITLE10=Born To Lose
TTITLE11=I've Got A Woman
TTITLE12=Yesterday
TTITLE13=Crying Time
TTITLE14=Let's Go Get Stoned
TTITLE15=What'd I Say
EXTD=YEAR: 2013
EXTT0=
EXTT1=
EXTT2=
EXTT3=
EXTT4=
EXTT5=
EXTT6=
EXTT7=
EXTT8=
EXTT9=
EXTT10=
EXTT11=
EXTT12=
EXTT13=
EXTT14=
EXTT15=
PLAYORDER=
